<svg width="16" height="16" viewBox="0 0 16 16" fill="none" xmlns="http://www.w3.org/2000/svg">
<g id="Frame">
<path id="Vector" d="M8 1.43999C10.136 1.43999 10.389 1.44899 11.233 1.48699C12.013 1.52299 12.436 1.65299 12.718 1.76299C13.066 1.89099 13.381 2.09499 13.639 2.36099C13.905 2.61899 14.109 2.93399 14.238 3.28199C14.348 3.56399 14.478 3.98799 14.513 4.76699C14.552 5.61099 14.56 5.86399 14.56 7.99999C14.56 10.136 14.552 10.389 14.513 11.232C14.478 12.012 14.347 12.436 14.238 12.718C14.1047 13.0628 13.9007 13.3759 13.6393 13.6373C13.3779 13.8987 13.0648 14.1026 12.72 14.236C12.438 14.346 12.014 14.476 11.234 14.511C10.391 14.55 10.137 14.558 8.001 14.558C5.865 14.558 5.611 14.55 4.769 14.511C3.989 14.476 3.565 14.346 3.283 14.236C2.93503 14.1078 2.62029 13.9031 2.362 13.637C2.09603 13.379 1.89134 13.0646 1.763 12.717C1.653 12.435 1.523 12.011 1.488 11.231C1.45 10.387 1.441 10.135 1.441 7.99899C1.441 5.86299 1.45 5.60899 1.488 4.76599C1.524 3.98599 1.654 3.56299 1.763 3.28099C1.892 2.93299 2.096 2.61799 2.362 2.35999C2.62028 2.09436 2.93459 1.88972 3.282 1.76099C3.565 1.65099 3.989 1.52099 4.769 1.48599C5.612 1.44799 5.865 1.43899 8.001 1.43899L8 1.43999ZM8.001 -0.00201416C5.829 -0.00201416 5.556 0.00798584 4.703 0.0459858C3.849 0.0859858 3.268 0.221986 2.76 0.418986C2.22625 0.620122 1.74272 0.935087 1.343 1.34199C0.936 1.74199 0.621 2.22499 0.42 2.75899C0.222 3.26699 0.087 3.84899 0.048 4.70099C0.01 5.55199 0 5.82599 0 7.99999C0 10.172 0.01 10.445 0.048 11.298C0.088 12.151 0.222 12.731 0.42 13.239C0.62 13.773 0.936 14.256 1.343 14.656C1.743 15.063 2.226 15.378 2.76 15.579C3.268 15.777 3.85 15.912 4.702 15.951C5.554 15.99 5.828 15.999 8.001 15.999C10.173 15.999 10.446 15.989 11.299 15.951C12.152 15.911 12.732 15.777 13.239 15.579C13.7706 15.3737 14.2534 15.0594 14.6564 14.6564C15.0594 14.2534 15.3737 13.7706 15.579 13.239C15.778 12.731 15.913 12.149 15.952 11.297C15.991 10.446 16 10.172 16 7.99899C16 5.82599 15.99 5.55399 15.952 4.70099C15.912 3.84799 15.778 3.26799 15.58 2.76099C15.3791 2.22682 15.0641 1.74291 14.657 1.34299C14.2573 0.936087 13.7737 0.621122 13.24 0.419986C12.732 0.222986 12.15 0.0869858 11.298 0.0489858C10.447 0.00798584 10.173 -0.00101416 8 -0.00101416L8.001 -0.00201416Z" fill="white"/>
<path id="Vector_2" d="M8.00003 3.89198C6.91052 3.89198 5.86563 4.32479 5.09523 5.09519C4.32483 5.86559 3.89203 6.91047 3.89203 7.99998C3.89203 9.08949 4.32483 10.1344 5.09523 10.9048C5.86563 11.6752 6.91052 12.108 8.00003 12.108C9.08954 12.108 10.1344 11.6752 10.9048 10.9048C11.6752 10.1344 12.108 9.08949 12.108 7.99998C12.108 6.91047 11.6752 5.86559 10.9048 5.09519C10.1344 4.32479 9.08954 3.89198 8.00003 3.89198ZM8.00003 10.667C7.64538 10.6738 7.29293 10.6099 6.96328 10.479C6.63363 10.348 6.3334 10.1526 6.08017 9.90422C5.82693 9.65584 5.62577 9.35945 5.48844 9.0324C5.35111 8.70535 5.28038 8.3542 5.28038 7.99948C5.28038 7.64477 5.35111 7.29362 5.48844 6.96656C5.62577 6.63951 5.82693 6.34313 6.08017 6.09475C6.3334 5.84637 6.63363 5.65098 6.96328 5.52001C7.29293 5.38904 7.64538 5.32511 8.00003 5.33198C8.69855 5.34551 9.3639 5.63249 9.85311 6.13127C10.3423 6.63005 10.6164 7.30083 10.6164 7.99948C10.6164 8.69813 10.3423 9.36891 9.85311 9.86769C9.3639 10.3665 8.69855 10.6535 8.00003 10.667ZM12.27 4.68898C12.5246 4.68898 12.7688 4.58784 12.9489 4.4078C13.1289 4.22777 13.23 3.98359 13.23 3.72898C13.23 3.47437 13.1289 3.23019 12.9489 3.05016C12.7688 2.87012 12.5246 2.76898 12.27 2.76898C12.0154 2.76898 11.7712 2.87012 11.5912 3.05016C11.4112 3.23019 11.31 3.47437 11.31 3.72898C11.31 3.98359 11.4112 4.22777 11.5912 4.4078C11.7712 4.58784 12.0154 4.68898 12.27 4.68898Z" fill="white"/>
</g>
</svg>
