<svg width="16" height="16" viewBox="0 0 16 16" fill="none" xmlns="http://www.w3.org/2000/svg">
<g id="Frame">
<path id="Vector" d="M16 8.00003C15.9998 6.47124 15.5615 4.97453 14.737 3.68709C13.9126 2.39966 12.7365 1.3754 11.3481 0.735589C9.95962 0.0957766 8.4169 -0.132801 6.90257 0.0769165C5.38823 0.286634 3.9657 0.925865 2.80337 1.91893C1.64104 2.912 0.787596 4.21732 0.344069 5.68035C-0.099457 7.14339 -0.114491 8.70288 0.300748 10.1742C0.715987 11.6455 1.54411 12.967 2.68708 13.9823C3.83004 14.9976 5.23999 15.6642 6.75 15.903V10.313H4.719V8.00003H6.75V6.23703C6.75 4.23203 7.944 3.12503 9.772 3.12503C10.647 3.12503 11.562 3.28103 11.562 3.28103V5.25003H10.554C9.56 5.25003 9.25 5.86703 9.25 6.50003V8.00003H11.469L11.114 10.313H9.25V15.903C11.1317 15.6049 12.8454 14.6452 14.0827 13.1966C15.32 11.7479 15.9999 9.90521 16 8.00003Z" fill="white"/>
</g>
</svg>
