<svg width="16" height="16" viewBox="0 0 16 16" fill="none" xmlns="http://www.w3.org/2000/svg">
<g id="Frame">
<path id="Vector" d="M13.54 3.88898C14.1788 3.51398 14.6542 2.91367 14.873 2.20599C14.2781 2.5628 13.6252 2.81258 12.944 2.94398C12.6641 2.6427 12.325 2.40236 11.948 2.23798C11.5644 2.06856 11.1493 1.98201 10.73 1.98398C10.331 1.97788 9.935 2.05361 9.56642 2.20651C9.19783 2.35941 8.8645 2.58624 8.587 2.87298C8.29982 3.15162 8.07277 3.48615 7.91987 3.85593C7.76697 4.22571 7.69146 4.6229 7.698 5.02298C7.698 5.23498 7.725 5.46499 7.778 5.71399C6.56325 5.65688 5.37502 5.33902 4.294 4.78199C3.2261 4.23692 2.28499 3.473 1.532 2.53998C1.26057 3.00157 1.11795 3.52751 1.119 4.06299C1.119 4.58199 1.239 5.06298 1.48 5.50798C1.72 5.95298 2.05 6.31298 2.468 6.58798C1.98621 6.58043 1.51406 6.45182 1.095 6.21398V6.25398C1.095 6.97898 1.325 7.61898 1.785 8.17398C2.22355 8.71676 2.83922 9.08779 3.524 9.22198C3.07973 9.34768 2.61208 9.36687 2.159 9.27798C2.34387 9.87876 2.71643 10.4045 3.222 10.778C3.73083 11.1659 4.35216 11.3776 4.992 11.381C3.9228 12.2362 2.59112 12.6961 1.222 12.683C0.979 12.683 0.738 12.667 0.5 12.635C1.88259 13.5362 3.49967 14.0109 5.15 14C6.055 14 6.913 13.88 7.722 13.639C8.532 13.399 9.248 13.069 9.869 12.651C10.488 12.2355 11.0533 11.7452 11.552 11.191C12.052 10.635 12.463 10.036 12.786 9.39298C13.1052 8.75983 13.3527 8.09304 13.524 7.40498C13.7236 6.61158 13.8065 5.7933 13.77 4.97598C14.361 4.54814 14.8716 4.01896 15.278 3.41299C14.718 3.66199 14.138 3.81998 13.54 3.88898Z" fill="white"/>
</g>
</svg>
