<svg width="16" height="17" viewBox="0 0 16 17" fill="none" xmlns="http://www.w3.org/2000/svg">
<g id="Frame">
<path id="Vector" d="M8.15199 16.7188H7.99999C5.88494 16.6987 3.86391 15.8418 2.37897 14.3355C0.894031 12.8293 0.0660321 10.7962 0.0760791 8.68112C0.0861262 6.56599 0.933402 4.54092 2.43259 3.04884C3.93177 1.55676 5.96084 0.719116 8.07599 0.719116C10.1911 0.719116 12.2202 1.55676 13.7194 3.04884C15.2186 4.54092 16.0659 6.56599 16.0759 8.68112C16.0859 10.7962 15.2579 12.8293 13.773 14.3355C12.2881 15.8418 10.267 16.6987 8.15199 16.7188ZM7.74199 2.51676C7.51599 2.78976 7.27899 3.22976 7.06499 3.83976C6.69599 4.89476 6.43899 6.33576 6.37799 7.96876H9.92499C9.86499 6.33576 9.60699 4.89476 9.23799 3.83976C9.02499 3.22976 8.78799 2.78976 8.56199 2.51676C8.36799 2.28176 8.23599 2.23176 8.17699 2.22076H8.13299C8.07799 2.22776 7.94299 2.27276 7.74199 2.51676ZM4.87699 7.96876C4.93899 6.19776 5.21699 4.58276 5.64999 3.34476C5.74899 3.06076 5.85799 2.79076 5.97899 2.53876C4.79831 2.92586 3.75315 3.64292 2.96706 4.60516C2.18096 5.5674 1.6868 6.73459 1.54299 7.96876H4.87699ZM1.54299 9.46875C1.6868 10.7029 2.18096 11.8701 2.96706 12.8324C3.75315 13.7946 4.79831 14.5116 5.97899 14.8988C5.85439 14.6363 5.74422 14.3672 5.64899 14.0928C5.21599 12.8548 4.93899 11.2398 4.87699 9.46875H1.54299ZM6.37799 9.46875C6.43899 11.1018 6.69599 12.5428 7.06499 13.5978C7.27899 14.2078 7.51599 14.6478 7.74199 14.9208C7.94399 15.1648 8.07799 15.2108 8.13299 15.2178L8.17699 15.2168C8.23699 15.2068 8.36699 15.1558 8.56199 14.9208C8.78799 14.6478 9.02499 14.2078 9.23799 13.5978C9.60799 12.5428 9.86399 11.1018 9.92499 9.46875H6.37799ZM11.426 9.46875C11.365 11.2398 11.087 12.8548 10.654 14.0928C10.572 14.3278 10.483 14.5528 10.386 14.7668C11.4802 14.3343 12.4367 13.6132 13.1535 12.6803C13.8704 11.7473 14.3209 10.6374 14.457 9.46875H11.427H11.426ZM14.457 7.96876C14.3208 6.80012 13.8703 5.69028 13.1534 4.75735C12.4365 3.82442 11.4801 3.1033 10.386 2.67076C10.483 2.88476 10.572 3.11076 10.654 3.34476C11.087 4.58276 11.365 6.19776 11.426 7.96876H14.457Z" fill="white"/>
</g>
</svg>
