<svg width="24" height="25" viewBox="0 0 24 25" fill="none" xmlns="http://www.w3.org/2000/svg">
<g id="Frame">
<path id="Vector" d="M13.5 1.60876C13.0439 1.34545 12.5266 1.20683 12 1.20683C11.4734 1.20683 10.9561 1.34545 10.5 1.60876L3 5.93876C2.69597 6.11429 2.4435 6.36676 2.26796 6.67079C2.09243 6.97481 2.00001 7.31969 2 7.67076V21.0938C2 21.359 2.10536 21.6133 2.29289 21.8009C2.48043 21.9884 2.73478 22.0938 3 22.0938H9C9.26522 22.0938 9.51957 21.9884 9.70711 21.8009C9.89464 21.6133 10 21.359 10 21.0938V15.0938H14V21.0938C14 21.359 14.1054 21.6133 14.2929 21.8009C14.4804 21.9884 14.7348 22.0938 15 22.0938H21C21.2652 22.0938 21.5196 21.9884 21.7071 21.8009C21.8946 21.6133 22 21.359 22 21.0938V7.67076C22 7.31969 21.9076 6.97481 21.732 6.67079C21.5565 6.36676 21.304 6.11429 21 5.93876L13.5 1.60876Z" fill="white"/>
</g>
</svg>
