<svg width="131" height="41" viewBox="0 0 131 41" fill="none" xmlns="http://www.w3.org/2000/svg">
<g id="Frame">
<path id="Vector" d="M0.924133 20.6155C0.924133 31.2434 9.70367 40.0229 20.3315 40.0229C30.9594 40.0229 39.7389 31.2434 39.7389 20.6155C39.7389 9.98765 30.9594 1.32363 20.3315 1.32363C9.70367 1.32363 0.924133 9.98765 0.924133 20.6155ZM27.4938 29.6261C22.9885 26.8536 17.2125 26.1605 10.5123 27.6623C8.89503 27.8933 8.66399 25.5829 10.0502 25.3519C17.4435 23.619 23.6816 24.4277 28.7645 27.5467C30.0352 28.3554 28.7645 30.3192 27.4938 29.6261ZM29.4576 24.4277C24.2592 21.1931 16.2883 20.269 10.1658 22.1173C8.20191 22.6949 7.50879 19.6914 9.35711 19.2293C16.4039 17.1499 25.0679 18.1896 31.0749 21.8862C32.6922 22.9259 31.0749 25.4674 29.4576 24.4277ZM9.24159 16.2257C7.27775 16.9189 6.00703 13.5688 8.20191 12.7601C15.0176 10.6808 26.5696 11.0273 33.7319 15.3016C35.6957 16.3413 33.8474 19.5758 31.768 18.4206C25.53 14.724 15.1331 14.3774 9.24159 16.2257ZM53.0238 26.7381C51.0599 26.7381 49.2116 26.045 47.5943 24.4277C47.4788 24.4277 47.4788 24.5432 47.4788 24.5432L45.6305 26.7381C45.515 26.8536 45.515 26.9691 45.6305 27.0847C47.7098 28.933 50.2513 29.8571 53.0238 29.8571C56.9515 29.8571 59.3774 27.6623 59.3774 24.4277C59.3774 21.6552 57.6446 20.1534 53.6014 19.1138C50.2513 18.3051 49.6737 17.7275 49.6737 16.5723C49.6737 15.4171 50.8289 14.724 52.3307 14.724C53.8324 14.724 55.2187 15.3016 56.8359 16.4568C56.8359 16.4568 56.9515 16.5723 57.067 16.5723C57.1825 16.5723 57.1825 16.4568 57.1825 16.4568L58.7998 14.1464C58.9153 14.0309 58.9153 14.0309 58.7998 13.9153C56.9515 12.4136 54.7566 11.6049 52.3307 11.6049C48.7495 11.6049 46.2081 13.7998 46.2081 16.9189C46.2081 20.269 48.5185 21.3086 52.2151 22.2328C55.4497 22.9259 55.9118 23.619 55.9118 24.7742C55.9118 26.045 54.7566 26.7381 53.0238 26.7381ZM63.9982 17.843V16.3413C63.9982 16.2257 63.8827 16.1102 63.7672 16.1102H60.7636C60.6481 16.1102 60.5326 16.2257 60.5326 16.3413V33.3228C60.5326 33.4383 60.6481 33.5538 60.7636 33.5538H63.7672C63.8827 33.5538 63.9982 33.4383 63.9982 33.3228V28.0088C65.1534 29.2795 66.4241 29.8571 68.1569 29.8571C71.276 29.8571 74.395 27.4312 74.395 22.8104C74.395 18.1896 71.276 15.8792 68.1569 15.8792C66.4241 15.8792 65.1534 16.4568 63.9982 17.843ZM67.4638 26.8536C65.3844 26.8536 63.8827 25.1208 63.8827 22.8104C63.8827 20.5 65.3844 18.8827 67.4638 18.8827C69.5432 18.8827 70.9294 20.5 70.9294 22.8104C70.9294 25.1208 69.5432 26.8536 67.4638 26.8536ZM75.3192 22.9259C75.3192 26.8536 78.4382 29.8571 82.4814 29.8571C86.5247 29.8571 89.6437 26.7381 89.6437 22.8104C89.6437 18.8827 86.6402 15.8792 82.597 15.8792C78.5538 15.8792 75.3192 18.9982 75.3192 22.9259ZM78.7848 22.8104C78.7848 20.5 80.2866 18.8827 82.4814 18.8827C84.6763 18.8827 86.2936 20.6155 86.2936 22.9259C86.2936 25.2363 84.7919 26.8536 82.597 26.8536C80.4021 26.8536 78.7848 25.1208 78.7848 22.8104ZM94.9576 16.1102V12.7601C94.9576 12.6446 94.9576 12.5291 94.8421 12.5291H91.8386C91.7231 12.5291 91.6076 12.6446 91.6076 12.7601V16.1102H90.1058C89.9903 16.1102 89.8747 16.2257 89.8747 16.3413V18.8827C89.8747 18.9982 89.9903 19.1138 90.1058 19.1138H91.6076V25.8139C91.6076 28.4709 92.8783 29.8571 95.5352 29.8571C96.5749 29.8571 97.6146 29.6261 98.4232 29.164C98.5388 29.164 98.5388 29.0485 98.5388 28.933V26.5071C98.5388 26.3915 98.5388 26.276 98.4232 26.276H98.1922C97.6146 26.6226 96.9215 26.7381 96.3439 26.7381C95.4197 26.7381 94.9576 26.276 94.9576 25.3519V19.1138H98.4232C98.5388 19.1138 98.6543 18.9982 98.6543 18.8827V16.3413C98.6543 16.2257 98.5388 16.1102 98.4232 16.1102H94.9576ZM109.86 15.7637C109.86 14.4929 110.322 14.0309 111.362 14.0309C111.939 14.0309 112.517 14.0309 113.094 14.2619H113.21C113.21 14.2619 113.325 14.1464 113.325 14.0309V11.6049C113.325 11.4894 113.325 11.3739 113.21 11.3739C112.632 11.1429 111.824 11.0273 110.668 11.0273C107.896 11.0273 106.51 12.6446 106.51 15.5326V16.1102H105.008C104.892 16.1102 104.777 16.2257 104.777 16.3413V18.8827C104.777 18.9982 104.892 19.1138 105.008 19.1138H106.51V29.3951C106.51 29.5106 106.625 29.6261 106.741 29.6261H109.744C109.86 29.6261 109.86 29.5106 109.86 29.3951V19.1138H112.748L117.022 29.3951C116.56 30.4347 116.098 30.6658 115.405 30.6658C114.827 30.6658 114.25 30.5503 113.672 30.2037H113.556L113.441 30.3192L112.401 32.5141C112.401 32.6296 112.401 32.8607 112.517 32.8607C113.556 33.4383 114.481 33.6693 115.636 33.6693C117.831 33.6693 119.101 32.6296 120.141 29.8571L125.339 16.4568V16.2257C125.339 16.1102 125.224 16.1102 125.108 16.1102H121.989C121.874 16.1102 121.874 16.2257 121.874 16.3413L118.639 25.3519L115.174 16.3413C115.174 16.2257 115.058 16.1102 114.943 16.1102H109.86V15.7637ZM100.272 16.1102C100.156 16.1102 100.041 16.2257 100.041 16.3413V29.3951C100.041 29.5106 100.156 29.6261 100.272 29.6261H103.275C103.391 29.6261 103.391 29.5106 103.391 29.3951V16.3413C103.391 16.2257 103.391 16.1102 103.275 16.1102H100.272ZM99.5784 12.2981C99.5784 13.4533 100.618 14.4929 101.773 14.4929C102.929 14.4929 103.853 13.4533 103.853 12.2981C103.853 11.1429 102.929 10.2187 101.773 10.2187C100.618 10.2187 99.5784 11.1429 99.5784 12.2981ZM127.881 20.269C129.036 20.269 130.076 19.3448 130.076 18.1896C130.076 17.0344 129.036 16.1102 127.881 16.1102C126.726 16.1102 125.802 17.0344 125.802 18.1896C125.802 19.3448 126.726 20.269 127.881 20.269ZM127.881 16.3413C128.921 16.3413 129.845 17.1499 129.845 18.1896C129.845 19.2293 128.921 20.0379 127.881 20.0379C126.841 20.0379 126.033 19.2293 126.033 18.1896C126.033 17.1499 126.841 16.3413 127.881 16.3413ZM128.343 18.4206C128.69 18.3051 128.921 18.0741 128.921 17.7275C128.921 17.2654 128.459 17.0344 127.996 17.0344H127.072V19.2293H127.534V18.5362H127.996L128.459 19.2293H129.036L128.343 18.4206ZM127.996 17.381C128.227 17.381 128.459 17.4965 128.459 17.7275C128.459 17.9586 128.227 18.0741 127.996 18.0741H127.534V17.381H127.996Z" fill="white"/>
</g>
</svg>
